<svg id="Handball_Court" data-name="Handball Court" xmlns="http://www.w3.org/2000/svg" width="617.577" height="308.092" viewBox="0 0 617.577 308.092">
  <g id="handball-court" transform="translate(0.003)">
    <g id="Group_18758" data-name="Group 18758">
      <path id="Path_11081" data-name="Path 11081" d="M270.913,383.139a1.218,1.218,0,0,0-1.569.6l-1.569,3.379-.06.121a1.142,1.142,0,0,0,.543,1.569,1.761,1.761,0,0,0,.543.121,1.115,1.115,0,0,0,1.026-.664l1.026-2.172.6-1.388A1.142,1.142,0,0,0,270.913,383.139Z" transform="translate(-149.191 -150.499)" fill="#e5e5e5"/>
      <path id="Path_11082" data-name="Path 11082" d="M261.686,140.322l.422,1.086a1.192,1.192,0,0,0,1.086.724,1.027,1.027,0,0,0,.422-.06,1.157,1.157,0,0,0,.664-1.509l-.483-1.086-1.086-2.534a1.189,1.189,0,1,0-2.172.965Z" transform="translate(-140.203 -62.441)" fill="#e5e5e5"/>
      <path id="Path_11083" data-name="Path 11083" d="M253.8,123.935a1.062,1.062,0,0,0,1.026.6,1.762,1.762,0,0,0,.543-.121,1.135,1.135,0,0,0,.483-1.569l-1.871-3.439a1.149,1.149,0,0,0-1.991,1.146Z" transform="translate(-137.15 -56.224)" fill="#e5e5e5"/>
      <path id="Path_11084" data-name="Path 11084" d="M247.991,422.133a1.053,1.053,0,0,0,.724.241,1.26,1.26,0,0,0,.965-.483l1.991-2.715.3-.483a1.172,1.172,0,0,0-1.931-1.328l-1.629,2.293-.664.845A1.169,1.169,0,0,0,247.991,422.133Z" transform="translate(-143.54 -159.599)" fill="#e5e5e5"/>
      <path id="Path_11085" data-name="Path 11085" d="M276.09,370.964a1.027,1.027,0,0,0,.422.06,1.16,1.16,0,0,0,1.086-.784l1.328-3.681a1.183,1.183,0,0,0-2.233-.784l-1.328,3.621A1.286,1.286,0,0,0,276.09,370.964Z" transform="translate(-151.926 -144.043)" fill="#e5e5e5"/>
      <path id="Path_11086" data-name="Path 11086" d="M262.076,400.5a1.166,1.166,0,0,0-1.569.422l-1.931,3.319a1.179,1.179,0,0,0,.362,1.629,1.164,1.164,0,0,0,.6.181,1.186,1.186,0,0,0,1.026-.543l1.448-2.474.483-.905A1.223,1.223,0,0,0,262.076,400.5Z" transform="translate(-146.642 -155.479)" fill="#e5e5e5"/>
      <path id="Path_11087" data-name="Path 11087" d="M197.486,49.795l3.138,2.233a1.053,1.053,0,0,0,.724.241,1.26,1.26,0,0,0,.965-.483,1.153,1.153,0,0,0-.241-1.629l-2.353-1.69-.845-.6a1.19,1.19,0,0,0-1.388,1.931Z" transform="translate(-123.507 -31.873)" fill="#e5e5e5"/>
      <path id="Path_11088" data-name="Path 11088" d="M283.823,346.485a1.175,1.175,0,0,0-1.388.845l-.965,3.741a1.17,1.17,0,0,0,.845,1.448c.121,0,.181.06.3.06a1.233,1.233,0,0,0,1.146-.845l.362-1.448.6-2.414A1.215,1.215,0,0,0,283.823,346.485Z" transform="translate(-154.09 -137.435)" fill="#e5e5e5"/>
      <path id="Path_11089" data-name="Path 11089" d="M290.447,269.3a1.146,1.146,0,0,0-1.147,1.147v3.922a1.146,1.146,0,0,0,1.147,1.146,1.187,1.187,0,0,0,1.146-1.146v-3.922A1.146,1.146,0,0,0,290.447,269.3Z" transform="translate(-156.889 -109.903)" fill="#e5e5e5"/>
      <path id="Path_11090" data-name="Path 11090" d="M290.447,249.9a1.146,1.146,0,0,0-1.147,1.147v3.922a1.146,1.146,0,0,0,1.147,1.147,1.187,1.187,0,0,0,1.146-1.147v-3.922A1.146,1.146,0,0,0,290.447,249.9Z" transform="translate(-156.889 -102.982)" fill="#e5e5e5"/>
      <path id="Path_11091" data-name="Path 11091" d="M290.447,230.5a1.146,1.146,0,0,0-1.147,1.146v3.922a1.146,1.146,0,0,0,1.147,1.146,1.187,1.187,0,0,0,1.146-1.146v-3.922A1.146,1.146,0,0,0,290.447,230.5Z" transform="translate(-156.889 -96.061)" fill="#e5e5e5"/>
      <path id="Path_11092" data-name="Path 11092" d="M242.521,91.854a1.159,1.159,0,0,0,1.81-1.448l-2.474-3.077a1.159,1.159,0,1,0-1.81,1.448Z" transform="translate(-140.483 -47.442)" fill="#e5e5e5"/>
      <path id="Path_11093" data-name="Path 11093" d="M287.678,327.388a1.162,1.162,0,0,0-1.328.965l-.664,3.8a1.178,1.178,0,0,0,.965,1.388h.241a1.218,1.218,0,0,0,1.147-.966l.543-3.258.121-.664A1.222,1.222,0,0,0,287.678,327.388Z" transform="translate(-155.593 -130.621)" fill="#e5e5e5"/>
      <path id="Path_11094" data-name="Path 11094" d="M289.866,308.1a1.162,1.162,0,0,0-1.267,1.086l-.241,3.319-.06.543a1.157,1.157,0,0,0,1.026,1.267h.121a1.132,1.132,0,0,0,1.147-1.086l.3-3.922A1.058,1.058,0,0,0,289.866,308.1Z" transform="translate(-156.528 -123.742)" fill="#e5e5e5"/>
      <path id="Path_11095" data-name="Path 11095" d="M290.447,288.7a1.146,1.146,0,0,0-1.147,1.147v3.922h1.147l1.146-.06v-3.862A1.146,1.146,0,0,0,290.447,288.7Z" transform="translate(-156.889 -116.867)" fill="#e5e5e5"/>
      <path id="Path_11096" data-name="Path 11096" d="M252.509,105.34l1.328,2.052a1.159,1.159,0,0,0,.965.543,1.019,1.019,0,0,0,.6-.181,1.179,1.179,0,0,0,.362-1.629l-1.388-2.112-.784-1.147a1.172,1.172,0,0,0-1.931,1.328Z" transform="translate(-145.1 -53.566)" fill="#e5e5e5"/>
      <path id="Path_11097" data-name="Path 11097" d="M195,471.564l-2.655,1.75-.6.362a1.179,1.179,0,0,0-.362,1.629,1.159,1.159,0,0,0,.965.543,1.02,1.02,0,0,0,.6-.181l3.258-2.172a1.165,1.165,0,0,0,.3-1.629A1.009,1.009,0,0,0,195,471.564Z" transform="translate(-121.199 -181.212)" fill="#e5e5e5"/>
      <path id="Path_11098" data-name="Path 11098" d="M210.52,459.918l-2.836,2.293-.181.121a1.228,1.228,0,0,0-.241,1.629,1.241,1.241,0,0,0,.905.483,1.16,1.16,0,0,0,.724-.241l1.991-1.569,1.086-.905a1.151,1.151,0,0,0,.121-1.629A1.032,1.032,0,0,0,210.52,459.918Z" transform="translate(-127.49 -176.566)" fill="#e5e5e5"/>
      <path id="Path_11099" data-name="Path 11099" d="M178.576,481.806l-3.379,1.871a1.187,1.187,0,0,0-.483,1.569,1.062,1.062,0,0,0,1.026.6,1.761,1.761,0,0,0,.543-.121L179.3,484.1l.422-.241a1.115,1.115,0,0,0,.422-1.569A1.135,1.135,0,0,0,178.576,481.806Z" transform="translate(-114.613 -185.299)" fill="#e5e5e5"/>
      <path id="Path_11100" data-name="Path 11100" d="M163.925,30.812l1.75.784,1.75.845a1.866,1.866,0,0,0,.483.121,1.115,1.115,0,0,0,1.026-.664,1.142,1.142,0,0,0-.543-1.569l-1.75-.845-1.81-.845a1.218,1.218,0,0,0-1.569.6A1.282,1.282,0,0,0,163.925,30.812Z" transform="translate(-110.1 -24.295)" fill="#e5e5e5"/>
      <path id="Path_11101" data-name="Path 11101" d="M214.987,63.3l.845.664a1.271,1.271,0,0,0,.784.3,1.166,1.166,0,0,0,.905-.422,1.151,1.151,0,0,0-.121-1.629l-2.957-2.595a1.155,1.155,0,0,0-1.509,1.75Z" transform="translate(-129.663 -36.503)" fill="#e5e5e5"/>
      <path id="Path_11102" data-name="Path 11102" d="M181.138,39.556l3.2,1.871.121.06a1.164,1.164,0,0,0,.6.181,1.178,1.178,0,0,0,.664-2.172L182.345,37.5a1.191,1.191,0,0,0-1.207,2.052Z" transform="translate(-116.995 -27.789)" fill="#e5e5e5"/>
      <path id="Path_11103" data-name="Path 11103" d="M288.9,212.4l.181,3.862a1.146,1.146,0,0,0,1.146,1.146h.06a1.16,1.16,0,0,0,1.146-1.207l-.121-3.077-.06-.845a1.162,1.162,0,0,0-1.267-1.086A1.079,1.079,0,0,0,288.9,212.4Z" transform="translate(-156.741 -89.172)" fill="#e5e5e5"/>
      <path id="Path_11104" data-name="Path 11104" d="M161.186,490.522l-2.052.905-1.509.6a1.085,1.085,0,0,0-.6,1.509,1.192,1.192,0,0,0,1.086.724,1.027,1.027,0,0,0,.422-.06l3.621-1.569a1.162,1.162,0,0,0-.965-2.112Z" transform="translate(-107.602 -188.766)" fill="#e5e5e5"/>
      <path id="Path_11105" data-name="Path 11105" d="M222.941,451.608a1.147,1.147,0,0,0,.784-.3l2.836-2.715a1.152,1.152,0,0,0-1.629-1.629l-2.776,2.715a1.149,1.149,0,0,0-.06,1.629A1.442,1.442,0,0,0,222.941,451.608Z" transform="translate(-133.334 -171.394)" fill="#e5e5e5"/>
      <path id="Path_11106" data-name="Path 11106" d="M286.888,193.114l.483,3.5.06.3a1.167,1.167,0,0,0,1.147,1.026h.121a1.149,1.149,0,0,0,1.026-1.267l-.543-3.922a1.12,1.12,0,0,0-1.328-.965A1.2,1.2,0,0,0,286.888,193.114Z" transform="translate(-156.021 -82.243)" fill="#e5e5e5"/>
      <path id="Path_11107" data-name="Path 11107" d="M236.52,437.526a1.166,1.166,0,0,0,.905-.422l2.474-2.9.06-.06a1.159,1.159,0,0,0-1.81-1.448l-1.509,1.75-1.026,1.146a1.151,1.151,0,0,0,.121,1.629A.927.927,0,0,0,236.52,437.526Z" transform="translate(-138.705 -165.7)" fill="#e5e5e5"/>
      <path id="Path_11108" data-name="Path 11108" d="M229.792,77.382a1.191,1.191,0,0,0,.845.362,1.146,1.146,0,0,0,.845-1.931L230.4,74.666l-1.69-1.69a1.152,1.152,0,0,0-1.629,1.629Z" transform="translate(-135.297 -41.78)" fill="#e5e5e5"/>
      <path id="Path_11109" data-name="Path 11109" d="M268.429,157.826l.483,1.569a1.234,1.234,0,0,0,1.147.845.766.766,0,0,0,.362-.06,1.182,1.182,0,0,0,.784-1.448L270,154.99a1.183,1.183,0,0,0-2.233.784Z" transform="translate(-142.776 -68.849)" fill="#e5e5e5"/>
      <path id="Path_11110" data-name="Path 11110" d="M283.172,174.3l.845,3.8a1.163,1.163,0,0,0,1.146.905h.241a1.215,1.215,0,0,0,.905-1.388l-.905-3.8a1.128,1.128,0,0,0-1.388-.845A1.021,1.021,0,0,0,283.172,174.3Z" transform="translate(-154.695 -75.526)" fill="#e5e5e5"/>
      <path id="Path_11111" data-name="Path 11111" d="M241.947,248.8a1.146,1.146,0,0,0-1.146,1.146v12.793a1.146,1.146,0,0,0,2.293,0V249.947A1.109,1.109,0,0,0,241.947,248.8Z" transform="translate(-140.27 -102.297)" fill="#e5e5e5"/>
      <path id="Path_11112" data-name="Path 11112" d="M170.547,262.269a1.146,1.146,0,0,0,1.146-1.146v-2.776a1.146,1.146,0,1,0-2.293,0v2.776A1.187,1.187,0,0,0,170.547,262.269Z" transform="translate(-113.161 -105.624)" fill="#e5e5e5"/>
      <path id="Path_11113" data-name="Path 11113" d="M835.28,387.122l-1.569-3.379a1.189,1.189,0,0,0-2.172.965l.6,1.388,1.026,2.172a1.115,1.115,0,0,0,1.026.664,1.762,1.762,0,0,0,.543-.121,1.142,1.142,0,0,0,.543-1.569Z" transform="translate(-336.3 -150.499)" fill="#e5e5e5"/>
      <path id="Path_11114" data-name="Path 11114" d="M830.978,141.268l.422-1.086,1.086-2.474a1.189,1.189,0,0,0-2.172-.965l-1.086,2.534-.483,1.086a1.157,1.157,0,0,0,.664,1.509,1.359,1.359,0,0,0,1.569-.6Z" transform="translate(-335.319 -62.37)" fill="#e5e5e5"/>
      <path id="Path_11115" data-name="Path 11115" d="M839.3,123.953l1.871-3.379a1.149,1.149,0,0,0-1.991-1.147l-1.871,3.44a1.17,1.17,0,0,0,.483,1.569,1.761,1.761,0,0,0,.543.121A1.047,1.047,0,0,0,839.3,123.953Z" transform="translate(-338.316 -56.24)" fill="#e5e5e5"/>
      <path id="Path_11116" data-name="Path 11116" d="M854.324,419.559l-1.629-2.293a1.172,1.172,0,0,0-1.931,1.328l.3.483,1.991,2.715a1.26,1.26,0,0,0,.965.483,1.18,1.18,0,0,0,.966-1.871Z" transform="translate(-341.569 -159.559)" fill="#e5e5e5"/>
      <path id="Path_11117" data-name="Path 11117" d="M826.6,365.79a1.183,1.183,0,0,0-2.233.784l1.328,3.681a1.16,1.16,0,0,0,1.086.784,1.027,1.027,0,0,0,.422-.06,1.157,1.157,0,0,0,.664-1.509Z" transform="translate(-333.799 -144.058)" fill="#e5e5e5"/>
      <path id="Path_11118" data-name="Path 11118" d="M842.478,401.009a1.149,1.149,0,1,0-1.991,1.146l.483.905,1.448,2.474a1.185,1.185,0,0,0,1.026.543,1.165,1.165,0,0,0,.6-.181,1.179,1.179,0,0,0,.362-1.629Z" transform="translate(-338.714 -153.69)" fill="#e5e5e5"/>
      <path id="Path_11119" data-name="Path 11119" d="M903.29,47.864l-.845.6-2.353,1.69a1.161,1.161,0,0,0-.241,1.629,1.26,1.26,0,0,0,.965.483,1.16,1.16,0,0,0,.724-.241l3.138-2.233a1.165,1.165,0,0,0,.3-1.629A1.247,1.247,0,0,0,903.29,47.864Z" transform="translate(-361.027 -31.873)" fill="#e5e5e5"/>
      <path id="Path_11120" data-name="Path 11120" d="M822.17,351.058l-.965-3.741a1.149,1.149,0,1,0-2.233.543l.6,2.414.362,1.448a1.112,1.112,0,0,0,1.147.845.544.544,0,0,0,.3-.06A1.182,1.182,0,0,0,822.17,351.058Z" transform="translate(-331.916 -137.423)" fill="#e5e5e5"/>
      <path id="Path_11121" data-name="Path 11121" d="M813.746,275.615a1.146,1.146,0,0,0,1.147-1.146v-3.922a1.147,1.147,0,1,0-2.293,0v3.922A1.187,1.187,0,0,0,813.746,275.615Z" transform="translate(-329.735 -109.938)" fill="#e5e5e5"/>
      <path id="Path_11122" data-name="Path 11122" d="M813.746,256.215a1.146,1.146,0,0,0,1.147-1.147v-3.922a1.147,1.147,0,1,0-2.293,0v3.922A1.187,1.187,0,0,0,813.746,256.215Z" transform="translate(-329.735 -103.018)" fill="#e5e5e5"/>
      <path id="Path_11123" data-name="Path 11123" d="M813.746,236.715a1.146,1.146,0,0,0,1.147-1.147v-3.922a1.147,1.147,0,0,0-2.293,0v3.922A1.146,1.146,0,0,0,813.746,236.715Z" transform="translate(-329.735 -96.061)" fill="#e5e5e5"/>
      <path id="Path_11124" data-name="Path 11124" d="M862.514,88.747A1.159,1.159,0,1,0,860.7,87.3l-2.474,3.077a1.144,1.144,0,0,0,.905,1.871,1.284,1.284,0,0,0,.905-.422Z" transform="translate(-344.51 -47.413)" fill="#e5e5e5"/>
      <path id="Path_11125" data-name="Path 11125" d="M818.043,332.254l-.664-3.8a1.161,1.161,0,0,0-2.293.362l.121.664.543,3.258a1.218,1.218,0,0,0,1.146.965h.241A1.356,1.356,0,0,0,818.043,332.254Z" transform="translate(-330.568 -130.653)" fill="#e5e5e5"/>
      <path id="Path_11126" data-name="Path 11126" d="M814.526,314.312a1.149,1.149,0,0,0,1.026-1.267l-.06-.543-.241-3.319a1.18,1.18,0,1,0-2.353.181l.3,3.922a1.176,1.176,0,0,0,1.146,1.086A.467.467,0,0,1,814.526,314.312Z" transform="translate(-329.818 -123.739)" fill="#e5e5e5"/>
      <path id="Path_11127" data-name="Path 11127" d="M814.993,293.769v-3.922a1.147,1.147,0,1,0-2.293,0v3.862l1.146.06Z" transform="translate(-329.771 -116.867)" fill="#e5e5e5"/>
      <path id="Path_11128" data-name="Path 11128" d="M851.079,104.193a1.172,1.172,0,1,0-1.931-1.328l-.784,1.147-1.388,2.112a1.179,1.179,0,0,0,.362,1.629,1.164,1.164,0,0,0,.6.181,1.087,1.087,0,0,0,.965-.543l1.328-2.052Z" transform="translate(-340.075 -53.566)" fill="#e5e5e5"/>
      <path id="Path_11129" data-name="Path 11129" d="M905.652,473.495l3.258,2.172a1.164,1.164,0,0,0,.6.181,1.088,1.088,0,0,0,.966-.543,1.179,1.179,0,0,0-.362-1.629l-.6-.362-2.655-1.75a1.164,1.164,0,0,0-1.629.3A1.4,1.4,0,0,0,905.652,473.495Z" transform="translate(-363.209 -181.212)" fill="#e5e5e5"/>
      <path id="Path_11130" data-name="Path 11130" d="M891.282,462.63l1.991,1.569a1.159,1.159,0,0,0,.724.241,1.064,1.064,0,0,0,.905-.483,1.112,1.112,0,0,0-.241-1.629l-.181-.121-2.836-2.293a1.155,1.155,0,1,0-1.509,1.75Z" transform="translate(-357.105 -176.562)" fill="#e5e5e5"/>
      <path id="Path_11131" data-name="Path 11131" d="M922.227,483.856l.422.241,3.017,1.629a.9.9,0,0,0,.543.121,1.168,1.168,0,0,0,1.026-.6,1.187,1.187,0,0,0-.483-1.569l-3.379-1.871a1.166,1.166,0,0,0-1.569.422A1.256,1.256,0,0,0,922.227,483.856Z" transform="translate(-369.767 -185.298)" fill="#e5e5e5"/>
      <path id="Path_11132" data-name="Path 11132" d="M936.918,28.722l-1.81.845-1.75.845a1.142,1.142,0,0,0-.543,1.569,1.115,1.115,0,0,0,1.026.664,1.137,1.137,0,0,0,.483-.121l1.75-.845,1.75-.784a1.2,1.2,0,0,0,.6-1.569A1.069,1.069,0,0,0,936.918,28.722Z" transform="translate(-374.14 -24.317)" fill="#e5e5e5"/>
      <path id="Path_11133" data-name="Path 11133" d="M887.892,59.718l-2.957,2.595a1.151,1.151,0,0,0-.121,1.629,1.284,1.284,0,0,0,.905.422,1.271,1.271,0,0,0,.784-.3l.784-.724,2.112-1.81a1.151,1.151,0,0,0,.121-1.629A1.1,1.1,0,0,0,887.892,59.718Z" transform="translate(-355.043 -36.547)" fill="#e5e5e5"/>
      <path id="Path_11134" data-name="Path 11134" d="M919.717,37.506,916.338,39.5A1.178,1.178,0,0,0,917,41.669a1.164,1.164,0,0,0,.6-.181l.121-.06,3.2-1.871a1.115,1.115,0,0,0,.422-1.569A1.218,1.218,0,0,0,919.717,37.506Z" transform="translate(-367.439 -27.791)" fill="#e5e5e5"/>
      <path id="Path_11135" data-name="Path 11135" d="M813.846,217.272h0a1.16,1.16,0,0,0,1.207-1.146l.181-3.862a1.18,1.18,0,1,0-2.353-.181l-.06.845-.121,3.077A1.178,1.178,0,0,0,813.846,217.272Z" transform="translate(-329.757 -89.099)" fill="#e5e5e5"/>
      <path id="Path_11136" data-name="Path 11136" d="M939.643,492.651l3.621,1.569a1.027,1.027,0,0,0,.422.06,1.1,1.1,0,0,0,1.086-.724,1.181,1.181,0,0,0-.6-1.509l-1.508-.6-2.052-.905a1.218,1.218,0,0,0-1.569.6A1.169,1.169,0,0,0,939.643,492.651Z" transform="translate(-376.623 -188.783)" fill="#e5e5e5"/>
      <path id="Path_11137" data-name="Path 11137" d="M877.406,446.877a1.152,1.152,0,0,0-1.629,1.629l2.836,2.715a1.082,1.082,0,0,0,.784.3,1.192,1.192,0,0,0,.845-.362,1.147,1.147,0,0,0-.06-1.629Z" transform="translate(-351.436 -171.369)" fill="#e5e5e5"/>
      <path id="Path_11138" data-name="Path 11138" d="M815.122,198.043h.121a1.124,1.124,0,0,0,1.146-1.026l.06-.3.483-3.5a1.161,1.161,0,0,0-2.293-.362l-.543,3.922A1.194,1.194,0,0,0,815.122,198.043Z" transform="translate(-330.231 -82.28)" fill="#e5e5e5"/>
      <path id="Path_11139" data-name="Path 11139" d="M865.849,434.461l-1.509-1.75a1.159,1.159,0,1,0-1.81,1.448l.06.06,2.474,2.9a1.176,1.176,0,0,0,1.69.121,1.151,1.151,0,0,0,.121-1.629Z" transform="translate(-346.215 -165.712)" fill="#e5e5e5"/>
      <path id="Path_11140" data-name="Path 11140" d="M875.3,72.862a1.1,1.1,0,0,0-1.629,0l-1.69,1.69L870.9,75.7a1.147,1.147,0,0,0,.06,1.629,1.082,1.082,0,0,0,.784.3,1.191,1.191,0,0,0,.845-.362l2.655-2.776A1.055,1.055,0,0,0,875.3,72.862Z" transform="translate(-349.513 -41.726)" fill="#e5e5e5"/>
      <path id="Path_11141" data-name="Path 11141" d="M823.07,160.14a.765.765,0,0,0,.362.06,1.211,1.211,0,0,0,1.147-.845l.483-1.569.724-2.112a1.183,1.183,0,0,0-2.233-.784l-1.207,3.741A1.1,1.1,0,0,0,823.07,160.14Z" transform="translate(-333.078 -68.812)" fill="#e5e5e5"/>
      <path id="Path_11142" data-name="Path 11142" d="M818.192,178.867h.241a1.163,1.163,0,0,0,1.147-.905l.845-3.8a1.175,1.175,0,0,0-.845-1.388,1.128,1.128,0,0,0-1.388.845l-.905,3.8A1.246,1.246,0,0,0,818.192,178.867Z" transform="translate(-331.334 -75.453)" fill="#e5e5e5"/>
      <path id="Path_11143" data-name="Path 11143" d="M863.493,262.739V249.947a1.147,1.147,0,0,0-2.293,0v12.793a1.146,1.146,0,0,0,1.146,1.146A1.108,1.108,0,0,0,863.493,262.739Z" transform="translate(-346.394 -102.297)" fill="#e5e5e5"/>
      <path id="Path_11144" data-name="Path 11144" d="M933.647,257.1a1.146,1.146,0,0,0-1.147,1.147v2.776a1.146,1.146,0,0,0,1.147,1.146,1.187,1.187,0,0,0,1.147-1.146v-2.776A1.146,1.146,0,0,0,933.647,257.1Z" transform="translate(-373.463 -105.588)" fill="#e5e5e5"/>
      <path id="Path_11145" data-name="Path 11145" d="M691.54,21.5H76.428A1.224,1.224,0,0,0,75.2,22.721V328.372a1.224,1.224,0,0,0,1.228,1.221H691.54a1.224,1.224,0,0,0,1.228-1.221V22.785A1.2,1.2,0,0,0,691.54,21.5ZM77.721,62.228H79.6l3.168.193,3.168.257,3.1.385,3.1.514,3.1.578,3.038.707,3.038.835,3.038.9,2.974,1.028,2.909,1.092,2.909,1.221,2.844,1.285,2.78,1.413,2.78,1.478,2.715,1.606,2.65,1.67,2.586,1.8,2.521,1.863,2.457,1.927,2.392,1.991,2.327,2.12,2.263,2.184,2.133,2.248,2.069,2.313,2,2.441,1.939,2.441,1.81,2.57,1.745,2.634,1.616,2.634,1.551,2.7,1.487,2.762,1.358,2.827,1.293,2.827,1.164,2.891,1.034,2.955.97,2.955.84,3.019.776,3.019.646,3.083.517,3.083.453,3.083.323,3.083.194,3.148.129,3.084v48.95l-.129,3.148-.194,3.083-.323,3.083-.453,3.083L165.9,215.5l-.646,3.083-.776,3.019-.84,3.019-.97,2.955-1.034,2.955-1.164,2.891-1.293,2.891-1.358,2.827-1.487,2.762-1.551,2.7-1.616,2.634-1.81,2.634-1.81,2.57-1.939,2.505-2,2.377-2.069,2.313-2.133,2.248-2.263,2.184-2.327,2.12-2.392,2.056-2.457,1.927-2.521,1.863-2.586,1.8-2.65,1.67-2.715,1.606-2.78,1.477L115.927,280l-2.844,1.285-2.909,1.221-2.909,1.092-2.974,1.028-3.038.9-3.038.771L95.176,287l-3.1.578-3.1.514-3.1.385-3.168.257-3.1.193H77.721V62.228Zm305,264.923H125.043a1.253,1.253,0,0,0-1.552-.642l-1.745.642H77.721V291.434h2l3.232-.193,3.232-.257,3.232-.385,3.168-.514,3.168-.578,3.168-.707,3.1-.835,3.1-.9,3.038-1.028,3.038-1.156,2.974-1.221,2.909-1.349L120,280.9l2.844-1.542,2.78-1.606,2.715-1.734,2.651-1.8,2.586-1.927L136.1,270.3l2.457-2.056,2.392-2.184,2.327-2.248,2.2-2.313,2.133-2.377,2.069-2.441,2-2.57,1.875-2.634,1.81-2.7,1.681-2.762,1.616-2.762,1.487-2.827,1.422-2.891,1.293-2.955,1.164-2.955,1.1-3.019.97-3.083.905-3.084.776-3.148.646-3.148L169,213l.453-3.148.323-3.212.194-3.212.129-3.212V151.135l-.129-3.212-.194-3.212-.323-3.212L169,138.351l-.582-3.148-.646-3.148L167,128.908l-.905-3.083-.97-3.083-1.1-3.019-1.164-2.955-1.293-2.955-1.422-2.891-1.487-2.827-1.616-2.762-1.681-2.762-1.81-2.634L151.677,97.3l-2-2.505L147.6,92.292l-2.133-2.377-2.2-2.313-2.327-2.248-2.392-2.184L136.1,81.114l-2.521-1.991L130.99,77.2l-2.651-1.8-2.715-1.734-2.78-1.67L120,70.45l-2.909-1.478-2.909-1.349L111.208,66.4l-3.038-1.156-3.038-1.028-3.1-.9-3.1-.835-3.168-.707L92.59,61.2l-3.3-.578-3.232-.385-3.232-.257L79.6,59.787H77.657V24.005h44.024l1.745.642a.964.964,0,0,0,.453.064,1.2,1.2,0,0,0,1.1-.707H382.724Zm307.588-38.222h-1.875l-3.1-.193-3.168-.257-3.1-.385-3.1-.514-3.1-.578-3.038-.707-3.038-.771-3.038-.9-2.974-1.028-2.909-1.092-2.909-1.221L652.106,280l-2.78-1.413-2.78-1.477-2.715-1.606-2.65-1.67-2.586-1.8-2.521-1.863-2.457-1.927-2.392-2.056-2.327-2.12-2.263-2.184-2.133-2.248-2.069-2.313-2-2.377-1.939-2.505-1.81-2.57-1.745-2.634-1.616-2.634-1.552-2.7-1.487-2.762-1.358-2.827-1.293-2.891-1.164-2.891-1.034-2.955-.97-2.955-.84-3.019-.776-3.019L602.2,215.5l-.517-3.083-.453-3.083-.323-3.083-.194-3.083-.129-3.148v-48.95l.129-3.084.194-3.148.323-3.083.453-3.083.517-3.083.646-3.083.776-3.019.84-3.019.97-2.955,1.034-2.955,1.164-2.891,1.293-2.827,1.358-2.827,1.487-2.762,1.552-2.7,1.616-2.634,1.745-2.634,1.81-2.57,1.939-2.441,2-2.441,2.069-2.313,2.133-2.248,2.263-2.184,2.327-2.12,2.392-1.991,2.457-1.927,2.521-1.863,2.586-1.8,2.65-1.67,2.715-1.606,2.78-1.478,2.78-1.413,2.844-1.285,2.909-1.221,2.909-1.092,2.974-1.028,3.038-.9,3.038-.835,3.038-.707,3.1-.578,3.1-.514,3.1-.385,3.168-.257,3.168-.193h1.875v226.7Zm0-229.206h-1.939l-3.232.193-3.232.257-3.232.385-3.168.514-3.168.578-3.168.707-3.1.835-3.1.9-3.038,1.028-3.038,1.156L653.916,67.5l-2.909,1.349L648.1,70.322l-2.845,1.542-2.78,1.67-2.715,1.734-2.65,1.8-2.586,1.927L632,80.986l-2.457,2.056-2.392,2.184-2.327,2.248-2.2,2.313-2.133,2.377-2.069,2.505-2,2.505-1.875,2.634-1.81,2.634-1.681,2.762-1.616,2.762-1.487,2.827-1.422,2.891-1.293,2.955-1.164,2.955-1.1,3.019L602,125.7l-.905,3.083-.776,3.148-.646,3.148-.582,3.148-.452,3.148-.323,3.212-.194,3.212L598,151.007v49.079l.129,3.212.194,3.212.323,3.212.452,3.148.582,3.148.646,3.148.776,3.148L602,225.4l.97,3.083,1.1,3.019,1.164,2.955,1.293,2.955,1.422,2.891,1.487,2.827,1.616,2.762,1.681,2.762,1.81,2.7,1.875,2.634,2,2.57,2.069,2.441,2.133,2.377,2.2,2.313,2.327,2.248,2.392,2.184L632,270.171l2.521,1.991,2.586,1.927,2.65,1.8,2.715,1.734,2.78,1.606,2.845,1.542,2.909,1.413,2.909,1.349,2.974,1.221,3.038,1.156,3.038,1.028,3.1.9,3.1.835,3.168.707,3.168.578,3.168.514,3.232.385,3.232.257,3.232.193h2v35.717H646.352l-1.745-.642a1.281,1.281,0,0,0-1.552.642H385.245V24.005H642.991a1.2,1.2,0,0,0,1.1.707,1.269,1.269,0,0,0,.453-.064l1.745-.642h44.024V59.722Z" transform="translate(-75.2 -21.5)" fill="#e5e5e5"/>
    </g>
    <g id="Group_18769" data-name="Group 18769" transform="translate(47.335 15.132)" opacity="0.25">
      <line id="Line_2" data-name="Line 2" x1="219.041" y2="56.721" transform="translate(42.843 34.998)" fill="none" stroke="#e5e5e5" stroke-linecap="round" stroke-width="3" stroke-dasharray="3 9"/>
      <line id="Line_5" data-name="Line 5" x1="219.041" y1="56.721" transform="translate(42.843 189.172)" fill="none" stroke="#e5e5e5" stroke-linecap="round" stroke-width="3" stroke-dasharray="3 9"/>
      <line id="Line_3" data-name="Line 3" x2="219.041" y2="56.721" transform="translate(260.074 34.998)" fill="none" stroke="#e5e5e5" stroke-linecap="round" stroke-width="3" stroke-dasharray="3 9"/>
      <line id="Line_4" data-name="Line 4" y1="56.721" x2="219.041" transform="translate(260.074 189.172)" fill="none" stroke="#e5e5e5" stroke-linecap="round" stroke-width="3" stroke-dasharray="3 9"/>
      <line id="Line_6" data-name="Line 6" y1="34.998" x2="21.723" transform="translate(0 0)" fill="none" stroke="#fff" stroke-linecap="round" stroke-width="3" stroke-dasharray="3 9"/>
      <line id="Line_9" data-name="Line 9" x1="21.723" y1="34.998" transform="translate(501.441 0)" fill="none" stroke="#fff" stroke-linecap="round" stroke-width="3" stroke-dasharray="3 9"/>
      <line id="Line_7" data-name="Line 7" x2="21.723" y2="34.998" transform="translate(0 245.592)" fill="none" stroke="#fff" stroke-linecap="round" stroke-width="3" stroke-dasharray="3 9"/>
      <line id="Line_8" data-name="Line 8" x1="21.723" y2="34.998" transform="translate(501.441 245.592)" fill="none" stroke="#fff" stroke-linecap="round" stroke-width="3" stroke-dasharray="3 9"/>
    </g>
  </g>
  <g id="Group_18770" data-name="Group 18770" transform="translate(615.187 127.099)">
    <rect id="Rectangle_9553" data-name="Rectangle 9553" width="2.715" height="2.39" transform="translate(0 22.855) rotate(-90)" fill="#fff"/>
    <rect id="Rectangle_9554" data-name="Rectangle 9554" width="2.715" height="2.39" transform="translate(0 20.151) rotate(-90)" fill="#ed2024"/>
    <rect id="Rectangle_9555" data-name="Rectangle 9555" width="2.715" height="2.39" transform="translate(0 17.447) rotate(-90)" fill="#fff"/>
    <rect id="Rectangle_9556" data-name="Rectangle 9556" width="2.715" height="2.39" transform="translate(0 14.743) rotate(-90)" fill="#ed2024"/>
    <rect id="Rectangle_9557" data-name="Rectangle 9557" width="2.715" height="2.39" transform="translate(0 12.038) rotate(-90)" fill="#fff"/>
    <rect id="Rectangle_9558" data-name="Rectangle 9558" width="2.715" height="2.39" transform="translate(0 9.335) rotate(-90)" fill="#ed2024"/>
    <rect id="Rectangle_9559" data-name="Rectangle 9559" width="2.715" height="2.39" transform="translate(0 6.63) rotate(-90)" fill="#fff"/>
    <rect id="Rectangle_9560" data-name="Rectangle 9560" width="3.942" height="2.39" transform="translate(0 3.942) rotate(-90)" fill="#ed2024"/>
    <rect id="Rectangle_9561" data-name="Rectangle 9561" width="3.962" height="2.39" transform="translate(0 53.893) rotate(-90)" fill="#ed2024"/>
    <rect id="Rectangle_9562" data-name="Rectangle 9562" width="2.715" height="2.39" transform="translate(0 49.898) rotate(-90)" fill="#fff"/>
    <rect id="Rectangle_9563" data-name="Rectangle 9563" width="2.715" height="2.39" transform="translate(0 47.193) rotate(-90)" fill="#ed2024"/>
    <rect id="Rectangle_9564" data-name="Rectangle 9564" width="2.715" height="2.39" transform="translate(0 44.49) rotate(-90)" fill="#fff"/>
    <rect id="Rectangle_9565" data-name="Rectangle 9565" width="2.715" height="2.39" transform="translate(0 41.785) rotate(-90)" fill="#ed2024"/>
    <rect id="Rectangle_9566" data-name="Rectangle 9566" width="2.715" height="2.39" transform="translate(0 39.081) rotate(-90)" fill="#fff"/>
    <rect id="Rectangle_9567" data-name="Rectangle 9567" width="2.715" height="2.39" transform="translate(0 36.377) rotate(-90)" fill="#ed2024"/>
    <rect id="Rectangle_9568" data-name="Rectangle 9568" width="2.715" height="2.39" transform="translate(0 33.673) rotate(-90)" fill="#fff"/>
    <rect id="Rectangle_9569" data-name="Rectangle 9569" width="2.715" height="2.39" transform="translate(0 30.968) rotate(-90)" fill="#ed2024"/>
    <rect id="Rectangle_9570" data-name="Rectangle 9570" width="2.715" height="2.39" transform="translate(0 28.263) rotate(-90)" fill="#fff"/>
    <rect id="Rectangle_9571" data-name="Rectangle 9571" width="2.715" height="2.39" transform="translate(0 25.56) rotate(-90)" fill="#ed2024"/>
  </g>
  <rect id="Rectangle_9553-2" data-name="Rectangle 9553" width="2.715" height="2.527" transform="translate(0 149.954) rotate(-90)" fill="#fff"/>
  <rect id="Rectangle_9554-2" data-name="Rectangle 9554" width="2.715" height="2.527" transform="translate(0 147.251) rotate(-90)" fill="#ed2024"/>
  <rect id="Rectangle_9555-2" data-name="Rectangle 9555" width="2.715" height="2.527" transform="translate(0 144.546) rotate(-90)" fill="#fff"/>
  <rect id="Rectangle_9556-2" data-name="Rectangle 9556" width="2.715" height="2.527" transform="translate(0 141.842) rotate(-90)" fill="#ed2024"/>
  <rect id="Rectangle_9557-2" data-name="Rectangle 9557" width="2.715" height="2.527" transform="translate(0 139.139) rotate(-90)" fill="#fff"/>
  <rect id="Rectangle_9558-2" data-name="Rectangle 9558" width="2.715" height="2.527" transform="translate(0 136.435) rotate(-90)" fill="#ed2024"/>
  <rect id="Rectangle_9559-2" data-name="Rectangle 9559" width="2.715" height="2.527" transform="translate(0 133.729) rotate(-90)" fill="#fff"/>
  <rect id="Rectangle_9560-2" data-name="Rectangle 9560" width="3.942" height="2.527" transform="translate(0 131.042) rotate(-90)" fill="#ed2024"/>
  <rect id="Rectangle_9561-2" data-name="Rectangle 9561" width="3.962" height="2.527" transform="translate(0 180.993) rotate(-90)" fill="#ed2024"/>
  <rect id="Rectangle_9562-2" data-name="Rectangle 9562" width="2.715" height="2.527" transform="translate(0 176.997) rotate(-90)" fill="#fff"/>
  <rect id="Rectangle_9563-2" data-name="Rectangle 9563" width="2.715" height="2.527" transform="translate(0 174.293) rotate(-90)" fill="#ed2024"/>
  <rect id="Rectangle_9564-2" data-name="Rectangle 9564" width="2.715" height="2.527" transform="translate(0 171.589) rotate(-90)" fill="#fff"/>
  <rect id="Rectangle_9565-2" data-name="Rectangle 9565" width="2.715" height="2.527" transform="translate(0 168.885) rotate(-90)" fill="#ed2024"/>
  <rect id="Rectangle_9566-2" data-name="Rectangle 9566" width="2.715" height="2.527" transform="translate(0 166.181) rotate(-90)" fill="#fff"/>
  <rect id="Rectangle_9567-2" data-name="Rectangle 9567" width="2.715" height="2.527" transform="translate(0 163.476) rotate(-90)" fill="#ed2024"/>
  <rect id="Rectangle_9568-2" data-name="Rectangle 9568" width="2.715" height="2.527" transform="translate(0 160.772) rotate(-90)" fill="#fff"/>
  <rect id="Rectangle_9569-2" data-name="Rectangle 9569" width="2.715" height="2.527" transform="translate(0 158.067) rotate(-90)" fill="#ed2024"/>
  <rect id="Rectangle_9570-2" data-name="Rectangle 9570" width="2.715" height="2.527" transform="translate(0 155.362) rotate(-90)" fill="#fff"/>
  <rect id="Rectangle_9571-2" data-name="Rectangle 9571" width="2.715" height="2.527" transform="translate(0 152.659) rotate(-90)" fill="#ed2024"/>
</svg>
